<svg width="532" height="218" fill="none" xmlns="http://www.w3.org/2000/svg"><path d="M32.3 184c-16.2-1.2-17.1-2.5-23.8-9.3-6.7-6.8-9.5-17.4-6.9-26.6 1.7-6.2 5.5-11.7 7.3-17.8 3.8-13.1-2-26.7-5.1-40-3.4-14.6-3.5-30-.2-44.7 1.3-5.8 3.3-11.7 7.9-15.4 6.5-5.3 15.9-4.3 24.2-3.1 13.2 1.9 27.1 3.7 39.5-1.3 8.1-3.3 14.8-9.3 22.2-14C110.5 3.3 126.3-1.4 141.8.6c15.4 2 30.2 11.2 37.1 25.2 3.9 8 5.2 17.1 9 25.2 3.8 8.1 11.6 15.5 20.5 14.5 9.3-1.1 14.9-10.4 21.6-17 9-8.9 21.4-13.4 33.6-16.9 11.6-3.4 24.4-6 35.4-1.1 6.9 3.1 12.3 8.8 18.2 13.5 18.6 14.7 46.9 19.1 66 5 10.9-8 17.5-20.8 28.3-28.9C426 9.2 445.6 8.2 463.6 9.7c11.5 1 23.7 3.2 32.1 11.1 9.8 9.2 12 24.2 9.9 37.5-1.5 9.7-5 19.9-1.3 29 1.9 4.8 5.6 8.6 8.9 12.7 12.3 15 19.7 34.6 17.8 54-1.9 19.4-13.7 38-31.5 45.9-17.7 7.8-38.2 4.4-56.7-1s-37-12.8-56.3-12.8c-15.5 0-30.9 4.9-46.3 3.5-12.6-1.1-24.5-6.3-36.9-9.1-12.4-2.8-26.5-2.8-36.3 5.2-4.8 4-8.1 9.5-12.3 14.1-15.8 17.9-43.5 21.6-66.1 14-22.6-7.6-40.8-24.7-55.8-43.3-2-2.5-4-5-6.8-6.4-2.3-1.1-4.9-1.4-7.4-1.5-6.5-.3-13.6.8-17.9 5.7-2.3 2.7-3.5 6.3-5.8 9.1-5 5.9-13.7 6.5-21.5 6.6-13.7-.3-27.4-.2-41.1 0Z" fill="#C3E800"/><path d="M166.2 64.8c.3-25.1-13.5-37-21.3-37-3.7 0-8.5 1.7-13.1 1.6-2.8 0-9.5-1.9-12.3-1.9-10-.1-21.8 12.9-22.1 38-.2 16.1 6.5 29.4 6.4 37.5 0 2.8-.7 7.6-.7 9.4-.1 7.9 9.6 9.8 25.7 10 21.5.3 28.3-3.3 28.4-10.4.1-4.5-.8-6.9-.7-11.4.1-9.8 9.5-23.2 9.7-35.8Zm-33.8 10.5c1.3-.9 1.5-.3 1.3 1-.4 5.3.6 10.5 1.9 15.6.1.7.2 1.4.1 2.1-.3 3.1-2 6.4-1.3 9.6.2.7.5 1.4 1 2 2.6 3.5 5.9 6 9.6 8.2.3.2.8.5.9.7 0 .1-.2.2-.6.1-1.1-.2-2.3-.9-3.3-1.4-4.8-2.1-7.4-7-11.3-10.2-.8-.6-1.7-1.1-2.6-1.5-6.9-3.2-11.4-9.9-13.7-17.1-.5-2.1.6-.9 1.6-.5.1 0 .1 0 .1-.1 0-.4-.2-.9-.4-1.3-6.8-18.4 2.2-39.8 20.6-46.8 1.6-.3.1 1.5.7 1.9.3.1.8-.3 1.1-.4 3.5-2 7.4-1.7 9.8.3 4.8 3.9.7 10.9-3.1 14.4-4.7 4.2-8.3 9.7-9.6 15.9-.2.9-.4 1.7-.8 2.5-.7 1.9-2.6 3.5-3.2 5.4.2.2.8-.2 1.2-.4Z" fill="#6C0F53"/><path d="M125.6 91.2c-6.8-15.6-1.4-37.3 9.5-45.8-13.4 7.9-18.2 31.3-9.5 45.8ZM409 114.2c-2.8-7.3-5.7-11.1-12.3-8.5-.2.1-.5.2-.9.4-15.7 8-31.8 7.7-37.5 7.3-.9-.1-1.6-.2-2.2-.2-2 .1-3 1-2.9 3.8.5 11.8 2.7 18.9 11.5 18.5 2.8-.1 4.8-1 6.2-2.3.1 0 .2 0 .3-.1 0-.1.1-.2.1-.3 4.6-4.7 4.5-13.8 15-16.1 7.9 0 15.3 10 18.2 17.5 2.6 6.7-.8 13.6-9.8 17.1-19.3 7.5-47.9 2-58.3-24.8-4.3-11.2.6-19.3 5.5-24.2 0 0 10.2-10.7 18.9-8.4 1.2.6 2.5 1.3 3.7 2 .1.1.3.2.4.3l-.2-.2c6.4 3.7 12.7 7.9 19.6 5.9 10.1-3 12.1-9.6 9.3-18.7-1.8-6-5.2-11.3-9.1-10.1-2.6.8-3.6 5.1-10.5 7.2-6.6 2-17.3 2-23.2 3.8-3.5 1-6.5 2.4-9.2 4.1-1.5.9-2.9 2-4.3 3.5-1.5 1.6-2.8 3.3-3.8 5.3-6.1 11-8.2 29-1 47.6 9.6 24.8 24.7 37.7 55.1 26 24.7-9.5 29.9-34.5 21.4-56.4ZM49.5 61c4.7-.4 9.8-1.3 13.1-1.6 2.8-.2 4.7 1.1 4.9 4.2.5 6.8-19.4 9.9-19.1 22.2.3 3.8 1.2 8.6 1.5 12.5.7 15.1-7.8 20.5-6.9 32.6.7 8.8 7.7 13.2 18 12.4 9.3-.7 11.9-7.5 11.4-14.6-.6-7.4-8.3-20.6-8.9-29-.8-11.2 5.4-18.2 17-19 9.8-.7 14.1 5.1 14.7 12.9.5 7.3-1.9 10.9-4.5 11.1-3.7.3-4.8-3.4-12-2.8-4 .3-6.3 2.3-6 5.9.9 11.5 28.9 16.7 30.2 34.7.3 4-.6 6.6-4.5 6.9-4.1.3-20-.7-34.2.4-10.5.8-26.4 3.6-33.5 4.1-2.7.2-4.8-.9-5-4.1-.4-6 11.1-16.7 9.9-32.5-1-14-12.6-25.3-13.8-43.2-.4-7 4.3-11.8 11.4-12.3 4.4-.5 10.5-.4 16.3-.8ZM195.8 106.7c-3 10.9-25.8 23.1-30.1 38.7-1.8 6.5.7 12.4 9.7 14.8 15.8 4.4 29.4-6.6 34.6-25.7 4.5-16.4-6.1-28.2-4.7-33.4.7-2.5 2.7-3.8 5.9-3 2.5.7 9.8 3 15.3 4.5 3.9 1.1 11.6 2.9 16.9 4.4 2.5.7 3.3 2.7 2.7 4.9-1.7 6.3-26 12.7-30.7 29.7-5.9 21.5 10.1 38.2 7.6 47.1-1.1 3.9-5.4 6.5-14.7 3.9-9.6-2.7-12.5-5.5-11-11.2.8-3 3-6 3.9-9.3.7-2.6.3-4.9-3.1-5.9-5-1.4-8.1 2.1-10.7 6.4-5 8.5-11.9 11.5-24.9 8-9.5-2.6-19.6-11.2-16.8-21.4 3-10.7 16.3-16.5 20-30.2 6.5-23.7-3.1-32.7-2-36.7 1.3-4.8 6.7-6 17.4-3 12.2 3.4 16.9 9.3 14.7 17.4Z" fill="#6C0F53"/><path d="M247.4 63.3c2.7.2 5.5 1 8.4 1.2 3.4.1 6.7-.2 9.2 0 2.4.2 3.3 2 3.1 4.5-.2 2.3-1.3 5.2-1.5 8.2-.2 2 .4 4.6 3.5 4.9 7.8.6 18.5-16.6 35.2-15.3 9 .7 15.5 7.1 14.8 17.4-1.8 22.6-23.1 27.2-24.2 41.5-.6 7.4 5.6 9.5 9.7 9.8 5.6.4 8.9-2.3 11.4-4.5 1.5-1.3 2.8-2.4 3.9-2.3 2 .2 3.2 3.1 2.8 7.8-.9 10.8-6.2 24.1-21.7 22.9-13-1-18.7-8.6-17.7-21 1.1-13.9 10.9-23.1 12-39.7.8-8.4-2.2-12.6-11.1-13.3-11.7-.9-23.5 12.7-25.1 32.7-1.4 17.8 17 27.8 16.5 34.2-.3 4-2.7 5.7-21.4 4.2-16.4-1.3-18.4-2.7-18.1-7 .6-7.4 14.9-17.7 16.1-33.1 1.5-18.6-11.8-39.3-11.1-47.6.2-4 2.8-5.7 5.3-5.5ZM410.1 80.1c4.2-34.6 16.9-43.8 35.6-41.6 6.1.7 15.9 5 22.7 5.8 7.2.9 9.8-2.7 12.5-2.4 4.1.5 5.1 6.7 4.3 12.9-1.2 9.5-5.5 14.7-16 13.4-13-1.6-23.9-15.4-37-17-3.8-.5-7.9 1.9-8.6 7.7-1.4 11.8 14.3 19.3 26.4 20.8 11.3 1.4 17.2-3.2 20.1-2.9 1.8.2 2.7 1.2 2.4 4-1.4 11.8-4 18.6-12.2 17.6-12-1.5-17.1-15.7-32-17.6-4.5-.7-7.8 2.4-8.4 7.3-1.2 10.1 7.8 22 23.6 23.9 19.1 2.3 26.3-10 32.3-9.3 2.7.3 3.9 3.1 3.3 8.5-1.8 14.9-17.1 22.5-33.1 20.6-27.3-3.2-39.8-20.1-35.9-51.7ZM436.7 145.4c2.2 1 3.6-.2 4.5.2 1.2.5.7 2.5.1 3.9-1.4 3.1-3.2 4.4-6.1 3.1-3.7-1.6-6.6-7.4-9.9-8.8-1.9-.8-3.1-.3-3.7 1-1.6 3.6 5.1 8.6 7.5 9.7 3.5 1.6 5.4.8 6.3 1.2.6.3.9.8.3 2-1.2 2.7-3 4.5-5.7 3.3-2.8-1.3-4-6.5-6.5-7.6-1.1-.5-1.9 0-2.5 1.2-2.5 5.7 5.9 11.4 4.5 14.5-.3.8-1.1 1.1-2.4.6-1.9-.9-4.4-2.2-6.8-3.2-2.1-.9-3.4-1.4-4.6-1.9-.7-.3-.9-.7-.7-1.3.1-.3.6-.7 1.1-.9 1.9-.6 4.2-2.3 5-4.1 2.5-5.6 1.1-12.7 2.8-16.4 1.3-2.9 3.8-3.6 6.9-2.2 2.8 1.3 6.9 4.4 9.9 5.7ZM442.4 160.7c-.8-11 2.5-14.6 8.5-15.1 1.9-.1 5.2.6 7.4.4 2.3-.2 2.9-1.4 3.7-1.5 1.3-.1 2 1.7 2.1 3.7.2 3-.8 4.9-4.1 5.2-4.1.3-8.4-3.3-12.5-3-1.2.1-2.3 1.1-2.2 2.9.3 3.7 5.6 5.1 9.5 4.8 3.6-.3 5.1-2.1 6-2.1.6 0 .9.2 1 1.1.3 3.7-.1 6-2.7 6.2-3.8.3-6.3-3.8-11-3.5-1.4.1-2.3 1.2-2.1 2.8.2 3.2 3.8 6.3 8.8 5.9 6.1-.5 7.5-4.7 9.5-4.9.9-.1 1.4.7 1.5 2.4.4 4.7-3.9 8-9 8.4-8.8.8-13.7-3.7-14.4-13.7ZM482.9 135.8c.8-.5 1.3-.2 1.8.5 1.2 1.9 1.4 5.9-.1 6.9-2.8 1.8-7.6-5.1-12.2-2.1-1.3.8-1.8 2.3-.8 3.9 3.4 5.3 16.3-3.3 21.6 5 2.6 4 1.9 8.9-4.3 12.9-7.8 5.1-11.8 3.2-13.5.4-1.4-2.2-1-5.1 1.2-6.6.9-.6 1.5-.3 2.2.4 1.9 2.1 4.8 3.1 9.7-.1 3.1-2 4.2-3.8 3-5.6-1.2-1.9-3.3-1.7-7.9.2-7.2 3-12.5 4.4-15.8-.6-2.6-4.1-1-8.7 4-12 5.1-3.2 8.7-1.7 11.1-3.2ZM504.8 134.7c3.1 1.7 5.9 2.2 7.1 0 1.3-2.5-.3-3.9-7-8.3-1.3-.8-1.4-1.7-1.2-2.2.6-1 1.6-.6 4.1-1.2 2.3-.6 3.4-.8 4.5-.2 4.5 2.4 3.9 8.6 1.3 13.4-3.4 6.2-7 8.7-11.8 6.1-5.8-3.1-6.3-13.3-10.1-15.3-1-.5-1.8-.3-2.3.7-1.5 2.8 2.2 6.4 1.2 8.2-.4.8-1 1-1.7.6-.4-.2-1.6-1.1-2.4-1.5-1-.5-2.3-.9-2.9-1.3-.8-.4-1.3-.9-.6-2.1 1.1-2.1 3.1-5.1 5.2-9 1.8-3.3 4.2-8.4 4.6-9.1.5-1 1.2-1.1 2.3-.6 2.5 1.4 5.4 5.7 4.6 7.3-1 1.8-4.8.5-6 2.7-1.5 2.4 3.5 7.7 11.1 11.8Z" fill="#6C0F53"/></svg>