<svg width="336" height="317" fill="none" xmlns="http://www.w3.org/2000/svg"><path d="M329.5 276.3c12.2-26 3-58.3-16.3-79.6-5.9-6.5-12.8-12.5-15.5-20.8-8.1-24.7 25.4-49.3 16.5-73.7-5.6-15.2-24.8-20.8-33.3-34.5-5.8-9.4-5.8-21.2-7.2-32.2-1.4-11-5.4-23.1-15.4-27.8-18.2-8.6-35.9 13.2-55.5 18.1-21.9 5.5-42.5-11.1-63.7-18.9-17.6-6.5-31-9.9-47.6-1.1-11 5.8-20.1 20.1-19.6 32.4.5 13.3-.9 29.8-12.6 36.5-18 10.3-26.7 33.3-28.2 52-1.2 15.5-.1 32.3-8.5 45.4-6.7 10.4-18.9 17.7-21.3 29.9-2.6 13.3 8.3 25.7 20.2 32.3 11.9 6.6 25.7 9.9 36.3 18.3 12.2 9.6 19.2 24.9 32.4 33 12.5 7.7 28 7.5 42.6 9 35.5 3.5 69.2 18 104.7 21.7 35.4 3.5 76.8-7.7 92-40Z" fill="#685A10"/><path d="M132.8 36.5c3.9 2.5 8.4 4.7 11.1 6.4 2.3 1.5 3 3.6 1.3 6.1-3.6 5.6-20.9-3.7-27.8 6.1-2 3.2-4.1 7.4-6.1 10.6-8.3 12.2-18 11.4-24.4 21.3-4.7 7.2-1.7 14.8 6.7 20.2 7.6 4.9 13.6 1.2 17.4-4.7 3.9-6.1 5.6-20.8 10.1-27.7 5.9-9.2 14.8-11 24.4-4.8 8.1 5.2 8 12.2 3.9 18.7-3.8 6-7.9 7.3-10 6-3-2-1.8-5.4-7.6-9.2-3.3-2.1-6.2-1.9-8.1 1.1-6.1 9.5 12.6 29.9 3.2 44.7-2.1 3.3-4.4 4.8-7.5 2.7-3.4-2.2-15.1-12.2-26.8-19.7-8.6-5.6-22.6-12.7-28.4-16.4-2.2-1.4-3.2-3.5-1.5-6.1 3.2-4.9 18.4-6.5 26.7-19.5 7.4-11.5 5-27 14.6-41.7 3.8-5.7 10.2-6.6 16.1-2.9 3.3 2.1 7.9 5.8 12.7 8.8ZM207.4 67.3c6.9 8.6 3.5 33.5 13.3 45.8 4.1 5.1 10.2 6.5 17.2.8 12.5-10 11.6-26.9-.5-42-10.3-12.9-25.7-11.2-29-15.4-1.6-2-1.5-4.3 1-6.3 2-1.6 8-6 12.3-9.5 3-2.4 8.9-7.5 13.1-10.8 2-1.6 4-1 5.4.7 4 5-4.8 27.7 5.9 41.2 13.6 16.9 35.8 13.8 41.5 20.9 2.4 3 2.1 7.9-5.3 13.8-7.6 6.1-11.5 6.7-15.1 2.3-1.9-2.4-3-5.8-5.1-8.4-1.7-2.1-3.7-3.1-6.4-.9-3.9 3.1-3 7.6-1 12 3.9 8.8 2.3 16-7.9 24.1-7.5 6-20 9.1-26.4 1-6.8-8.5-3.8-22.3-12.4-33-14.9-18.6-27.6-16.2-30.1-19.3-3-3.8-.9-8.7 7.5-15.5 9.6-7.5 16.9-7.9 22-1.5ZM59.5 128.3c2.6.6 5.2 1.7 7.9 2.3 3.3.6 6.5.7 8.8 1.2 2.3.5 2.9 2.3 2.4 4.8-.5 2.2-1.9 4.9-2.5 7.7-.4 1.9-.3 4.5 2.7 5.1 7.5 1.6 20-13.6 35.9-10.2 8.6 1.8 14 8.8 12.1 18.6-4.6 21.6-25.7 23.3-28.6 36.9-1.5 7.1 4.1 9.8 8.1 10.7 5.3 1.1 8.9-1.1 11.6-2.9 1.6-1.1 3-1.9 4.1-1.7 1.9.4 2.7 3.4 1.7 7.9-2.2 10.3-9.1 22.5-23.9 19.3-12.4-2.6-16.9-10.7-14.4-22.5 2.9-13.3 13.4-20.9 16.7-36.8 1.9-8-.5-12.5-9-14.3-11.1-2.4-24.3 9.3-28.4 28.3-3.6 17 12.8 29 11.5 35.1-.8 3.8-3.4 5.1-21.2 1.3-15.6-3.3-17.4-5-16.5-9.1 1.5-7.1 16.6-15.2 19.8-29.9 3.8-17.8-6.3-39.4-4.6-47.3.7-3.7 3.4-5 5.8-4.5ZM208.3 201.4c-9.7-32.5-2.1-45.6 15.5-50.9 5.7-1.7 16.1-1.8 22.5-3.7 6.8-2 7.7-6.2 10.2-7 3.9-1.2 7.1 4 8.9 9.8 2.7 8.9.8 15.3-9 18.2-12.2 3.7-27.3-4.4-39.7-.7-3.6 1.1-6.3 4.8-4.6 10.2 3.3 11 20.3 11.6 31.6 8.2 10.6-3.2 14.1-9.6 16.8-10.4 1.7-.5 2.9 0 3.7 2.7 3.3 11 3.7 18.2-4 20.5-11.3 3.4-21.4-7.4-35.3-3.2-4.3 1.1-6 5.1-4.6 9.8 2.8 9.5 15.5 16.5 30.3 12.1 18-5.4 19.5-19.2 25.2-20.9 2.5-.8 4.7 1.2 6.2 6.3 4.2 14-6.5 26.7-21.5 31.3-25.6 7.6-43.3-2.7-52.2-32.3ZM234.1 245.7c2.1 1.2 3.5.2 4.3.7 1.1.6.4 2.5-.3 3.8-1.6 2.8-3.5 3.9-6.2 2.4-3.4-2-5.6-7.8-8.7-9.5-1.8-1-2.9-.6-3.6.6-1.9 3.3 4.1 8.9 6.3 10.1 3.2 1.9 5.1 1.3 6 1.8.5.3.8.9.1 2-1.4 2.5-3.3 4.1-5.9 2.6-2.6-1.5-3.2-6.7-5.6-8-1-.6-1.9-.2-2.5.9-3 5.3 4.5 11.6 2.9 14.5-.4.7-1.2 1-2.4.3-1.8-1-4-2.6-6.2-3.8-1.9-1.1-3.2-1.7-4.3-2.3-.6-.4-.8-.8-.5-1.3.2-.3.6-.6 1.2-.7 1.9-.4 4.3-1.8 5.2-3.5 2.9-5.1 2.4-12.2 4.3-15.5 1.5-2.7 4-3.1 6.9-1.4 2.6 1.3 6.3 4.7 9 6.3ZM238.3 261.1c.3-10.7 3.9-13.9 9.7-13.8 1.9 0 5 1 7.1 1.1 2.2.1 2.9-1.1 3.8-1.1 1.3 0 1.8 1.9 1.7 3.8-.1 2.9-1.3 4.7-4.5 4.6-4-.1-7.8-4-11.8-4.1-1.2 0-2.3.8-2.4 2.6-.1 3.6 5 5.5 8.7 5.6 3.5.1 5.2-1.5 6.1-1.5.6 0 .9.3.8 1.2-.1 3.6-.7 5.8-3.2 5.8-3.7-.1-5.7-4.3-10.3-4.4-1.4-.1-2.3.9-2.3 2.5-.1 3.1 3 6.5 7.9 6.6 5.9.1 7.7-3.8 9.6-3.8.8 0 1.3.8 1.3 2.5-.1 4.6-4.6 7.4-9.5 7.3-8.7-.3-13-5.1-12.7-14.9ZM280 240.8c.8-.4 1.3-.1 1.7.7 1 1.9.8 5.8-.8 6.6-2.8 1.5-6.9-5.6-11.6-3.2-1.3.7-2 2.1-1.1 3.7 2.8 5.4 16.1-1.6 20.5 6.8 2.1 4.1 1 8.8-5.3 12.1-8 4.2-11.7 2-13.2-.8-1.2-2.3-.5-5 1.8-6.2.9-.5 1.5-.2 2.1.6 1.6 2.2 4.4 3.4 9.4.8 3.2-1.6 4.4-3.3 3.4-5.2-1-2-3-1.9-7.7-.6-7.3 2.2-12.6 3.1-15.2-2-2.2-4.2-.2-8.6 5-11.2 5.2-2.6 8.6-.8 11-2.1ZM301.5 241.7c2.9 1.9 5.5 2.7 6.8.7 1.5-2.3.1-3.8-6-8.6-1.2-.9-1.2-1.8-.9-2.2.6-1 1.6-.4 4.1-.8 2.3-.3 3.4-.5 4.3.2 4.2 2.8 3 8.7.1 13.1-3.8 5.7-7.6 7.8-12 4.8-5.4-3.6-4.9-13.4-8.4-15.7-.9-.6-1.7-.5-2.3.5-1.7 2.6 1.6 6.4.4 8-.5.7-1 .8-1.7.4-.4-.2-1.4-1.2-2.2-1.7-.9-.6-2.2-1.1-2.7-1.5-.7-.5-1.2-1-.4-2.1 1.3-1.9 3.5-4.7 5.9-8.3 2-3 4.8-7.8 5.2-8.4.6-.9 1.3-1 2.2-.4 2.3 1.6 4.7 6.1 3.7 7.5-1.1 1.6-4.7 0-6.1 2-1.4 2.3 3 7.8 10 12.5ZM204.9 233.5c-1.5-7.5-3.6-11.6-10.4-10.2-.2 0-.5.1-.9.3-16.3 5.1-31.8 2.2-37.2.9-.8-.3-1.5-.5-2.1-.6-1.9-.2-3 .5-3.4 3.2-1.4 11.4-.5 18.6 8 19.6 2.7.3 4.7-.2 6.4-1.2h.3c.1-.1.1-.2.2-.3 5.2-3.7 6.6-12.5 17-13 7.6 1.3 13.1 12.1 14.6 19.8 1.4 6.8-3 13-12.1 14.8-19.7 4-46.3-5.9-51.9-33.2-2.3-11.4 3.8-18.4 9.2-22.3 0 0 11.6-8.6 19.5-5 1.1.8 2.2 1.6 3.2 2.5.1.1.2.2.3.4l-.1-.2c5.5 4.6 10.9 9.7 17.8 8.8 10.2-1.2 13.1-7.2 12-16.4-.7-6.1-3.1-11.7-7.1-11.2-2.6.3-4.2 4.3-11.3 5.2-6.6.8-16.9-.9-22.8-.1-3.5.4-6.6 1.2-9.5 2.4-1.6.6-3.2 1.5-4.7 2.6-1.7 1.2-3.2 2.7-4.5 4.5-7.7 9.5-12.6 26.5-8.7 45.5 5.2 25.3 17.6 40.2 48.6 33.9 25.1-5.2 34.1-28.3 29.6-50.7Z" fill="#C3E800"/><path d="M204.6 141c8-23.8-1.5-39.3-8.9-41.8-3.5-1.2-8.6-1-12.9-2.5-2.6-.9-8.5-4.7-11.1-5.6-9.4-3.2-24.8 5.6-32.7 29.4-5.1 15.3-2.8 30-5.4 37.6-.9 2.6-3 7-3.5 8.7-2.5 7.5 6.1 12.3 21.4 17.4 20.4 6.9 28 5.5 30.2-1.1 1.4-4.3 1.4-6.8 2.8-11.1 3-9.2 16.1-19.1 20.1-31Zm-35.4-.5c1.5-.5 1.5.2 1 1.3-2 4.9-2.6 10.2-3 15.4-.1.7-.2 1.4-.5 2-1.3 2.9-3.9 5.5-4.2 8.8 0 .7.1 1.5.3 2.2 1.4 4.1 3.8 7.5 6.7 10.7.2.3.6.7.7 1 0 .1-.2.1-.6-.1-1-.5-1.9-1.6-2.7-2.3-3.9-3.4-4.9-8.9-7.6-13.2-.5-.8-1.3-1.5-2-2.2-5.6-5.1-7.8-12.9-7.8-20.5.2-2.2.9-.7 1.7 0 .1 0 .1 0 .1-.1.1-.4 0-.9 0-1.4-.8-19.6 14.3-37.2 34-38.2 1.6.2-.4 1.5.1 2 .2.2.8 0 1.2-.1 3.9-.8 7.6.7 9.3 3.3 3.4 5.2-2.7 10.6-7.3 12.7-5.7 2.5-10.9 6.7-14 12.2-.4.8-.9 1.5-1.5 2.2-1.3 1.6-3.6 2.5-4.7 4.1-.3.6.4.3.8.2Z" fill="#C3E800"/><path d="M157.9 153.6c-1.7-17 10.1-35.9 23.1-40.7-15.2 3.4-26.9 24.2-23.1 40.7Z" fill="#C3E800"/></svg>