<?xml version="1.0" encoding="utf-8"?>
<!-- Generator: Adobe Illustrator 15.0.2, SVG Export Plug-In . SVG Version: 6.00 Build 0)  -->
<!DOCTYPE svg PUBLIC "-//W3C//DTD SVG 1.1//EN" "http://www.w3.org/Graphics/SVG/1.1/DTD/svg11.dtd">
<svg version="1.1" id="Layer_1" xmlns="http://www.w3.org/2000/svg" xmlns:xlink="http://www.w3.org/1999/xlink" x="0px" y="0px"
	 width="180px" height="83px" viewBox="0 0 1157.305 595.28" enable-background="new 0 0 1157.305 595.28"
	 xml:space="preserve">
<g>
	<path fill-rule="evenodd" clip-rule="evenodd" fill="#282727" d="M314.591,64.602C185.886,35.455,57.924,116.165,28.779,244.866
		C-0.364,373.567,80.339,501.529,209.044,530.68c128.705,29.145,256.664-51.564,285.811-180.268
		C523.999,221.709,443.292,93.749,314.591,64.602 M326.122,316.041c0.639,0.307,1.275,0.61,1.914,0.918
		c-4.738,10.733-8.947,21.742-14.328,32.143c-10.797,20.859-25.047,38.883-44.869,52.171c-3.199,2.146-5.487,6.009-7.529,9.476
		c-14.003,23.846-32.453,43.019-57.454,55.417c-3.577,1.772-7.334,3.192-11.01,4.778c-0.512-0.758-1.022-1.512-1.536-2.273
		c3.598-2.734,6.898-6.057,10.853-8.11c21.591-11.207,37.096-28.66,50.072-48.589c1.703-2.615,1.312-7.042,0.899-10.512
		c-1.539-12.994-3.526-25.938-5.24-38.912c-0.221-1.684-0.31-3.625,0.299-5.146c9.404-23.586,10.781-48.28,9.139-75.918
		c5.267,4.073,8.097,6.267,13.36,10.341c-2.759-6.168-3.425-10.431-5.905-12.719c-9.491-8.735-9.667-19.73-9.62-31.344
		c0.102-26.487-11.743-49.409-22.11-72.874c-5.395-12.205-9.851-25.121-12.478-38.166c-2.595-12.893,11.226-25.005,24.355-23.176
		c12.842,1.793,23.356,7.683,32.502,20.668c-0.965-5.467-1.447-8.191-2.303-13.011c31.896,25.264,50.391,56.397,59.793,93.308
		c9.594,37.672,0.219,72.506-17.77,108.212C321.427,319.543,323.776,317.791,326.122,316.041"/>
	<path fill-rule="evenodd" clip-rule="evenodd" fill="#282727" d="M255.94,153.069c40.887,63.604,50.008,131.028,24.9,202.803
		C320.019,275.615,301.743,196.58,255.94,153.069"/>
</g>
<g>
	<path fill="#282727" d="M644.793,276.781c-1.768,6.616-3.158,13.532-4.173,20.75c-14.397-0.451-24.64-0.677-30.729-0.677
		c-6.016,0-16.127,0.226-30.336,0.677c-0.603,0-0.902-0.527-0.902-1.579c0-0.94,0.3-1.446,0.902-1.522
		c4.547-0.526,7.639-1.372,9.275-2.539c1.635-1.166,2.451-3.498,2.451-6.997v-53.102c0-2.633-0.328-4.485-0.986-5.558
		s-1.814-1.919-3.467-2.54c-1.654-0.62-4.08-1.119-7.273-1.495c-0.603,0-0.902-0.517-0.902-1.551c0-1.033,0.3-1.551,0.902-1.551
		c2.518,0,5.525,0.113,9.021,0.339c3.345,0.226,6.164,0.338,8.457,0.338s5.094-0.112,8.402-0.338
		c3.457-0.226,6.446-0.339,8.965-0.339c0.602,0,0.902,0.518,0.902,1.551c0,1.034-0.301,1.551-0.902,1.551
		c-3.157,0.377-5.563,0.876-7.217,1.496c-1.656,0.62-2.801,1.457-3.439,2.511c-0.641,1.054-0.959,2.915-0.959,5.587v54.794
		c0,4.439,2.18,6.659,6.541,6.659h11.164c4.623,0,8.533-1.231,11.729-3.694c3.194-2.461,6.352-7.057,9.473-13.786
		c0.15-0.3,0.508-0.45,1.072-0.45c0.487,0,0.947,0.15,1.381,0.45C644.576,276.067,644.793,276.405,644.793,276.781"/>
	<path fill="#282727" d="M829.682,220.648c0,1.034-0.302,1.551-0.9,1.551c-4.738,0.603-7.914,1.478-9.531,2.625
		c-1.616,1.146-2.424,3.47-2.424,6.968v35.38c0,10.044-2.422,17.916-7.267,23.615s-11.681,8.549-20.506,8.549
		c-10.065,0-17.914-2.719-23.548-8.154c-5.633-5.437-8.449-12.837-8.449-22.204v-37.186c0-2.596-0.311-4.429-0.932-5.501
		c-0.619-1.072-1.756-1.929-3.41-2.568s-4.079-1.147-7.273-1.523c-0.602,0-0.902-0.517-0.902-1.551c0-1.033,0.301-1.551,0.902-1.551
		c2.518,0,5.506,0.113,8.965,0.339c3.308,0.226,6.108,0.338,8.402,0.338c2.291,0,5.111-0.112,8.457-0.338
		c3.496-0.226,6.503-0.339,9.021-0.339c0.602,0,0.902,0.518,0.902,1.551c0,1.034-0.301,1.551-0.902,1.551
		c-3.195,0.377-5.619,0.876-7.273,1.496s-2.811,1.467-3.468,2.539c-0.658,1.072-0.987,2.925-0.987,5.559v35.606
		c0,9.255,1.748,16.046,5.244,20.372s9.191,6.489,17.086,6.489c14.848,0,22.271-9.405,22.271-28.216v-34.252
		c0-3.499-0.836-5.841-2.508-7.025c-1.674-1.186-4.822-2.041-9.445-2.568c-0.602,0-0.902-0.517-0.902-1.551
		c0-1.033,0.299-1.551,0.898-1.551c1.725,0,3.99,0.113,6.799,0.339c2.886,0.226,5.227,0.338,7.027,0.338
		c1.799,0,4.051-0.112,6.758-0.338c2.783-0.226,5.112-0.339,6.994-0.339C829.38,219.098,829.682,219.615,829.682,220.648"/>
	<path fill="#282727" d="M929.991,220.677c0,0.94-0.301,1.447-0.902,1.522c-4.699,0.527-7.922,1.393-9.67,2.598
		s-2.66,3.521-2.734,6.945l-1.242,66.466c0,0.751-0.451,1.128-1.352,1.128c-0.451,0-1.055-0.302-1.805-0.902l-58.135-65.69
		l-0.789,52.157c-0.039,0.302-0.057,0.583-0.057,0.846c0,2.857,0.902,4.878,2.707,6.062c1.805,1.185,5.055,2.059,9.754,2.622
		c0.602,0.076,0.902,0.583,0.902,1.522c0,1.052-0.301,1.579-0.902,1.579c-1.955,0-4.643-0.113-8.063-0.339
		c-3.195-0.226-5.658-0.338-7.387-0.338c-1.881,0-4.418,0.112-7.611,0.338c-3.082,0.226-5.469,0.339-7.161,0.339
		c-0.602,0-0.902-0.527-0.902-1.579c0-0.939,0.339-1.446,1.015-1.522c4.661-0.563,7.855-1.438,9.586-2.623
		c1.729-1.186,2.65-3.489,2.762-6.913l1.975-53.102v-0.508c0-3.045-0.884-5.171-2.65-6.376c-1.768-1.203-5.057-2.106-9.866-2.709
		c-0.529,0-0.789-0.517-0.789-1.551c0-1.033,0.299-1.551,0.901-1.551c1.313,0,3.157,0.113,5.525,0.339
		c2.104,0.226,3.684,0.338,4.736,0.338c1.314,0,2.893-0.112,4.736-0.338c1.879-0.226,3.496-0.339,4.848-0.339l54.301,60.729v-48.079
		c0-3.201-0.912-5.451-2.734-6.751c-1.824-1.298-5.197-2.231-10.121-2.797c-0.602-0.075-0.902-0.582-0.902-1.522
		c0-1.052,0.301-1.579,0.902-1.579c2.029,0,4.736,0.113,8.119,0.339c3.158,0.226,5.602,0.338,7.33,0.338
		c1.879,0,4.416-0.112,7.612-0.338c3.081-0.226,5.47-0.339,7.161-0.339C929.69,219.098,929.991,219.625,929.991,220.677"/>
	<path fill="#282727" d="M1023.591,262.91c0,0.94-0.301,1.447-0.898,1.522c-4.527,0.526-7.607,1.373-9.234,2.538
		c-1.629,1.165-2.441,3.495-2.441,6.991v6.653c0,5.789,0.412,9.774,1.24,11.954c-5.002,1.993-10.4,3.618-16.193,4.877
		c-5.795,1.259-10.911,1.89-15.35,1.89c-8.578,0-16.102-1.692-22.572-5.075s-11.512-8.223-15.123-14.52
		c-3.611-6.296-5.416-13.297-5.416-21.004c0-7.668,1.955-14.707,5.867-21.116s9.311-11.381,16.195-14.914s14.691-5.301,23.42-5.301
		c3.385,0,7.936,0.602,13.654,1.805c5.041,1.054,8.898,1.579,11.568,1.579c0.488,5.263,1.354,11.653,2.595,19.171
		c0,0.602-0.601,0.902-1.804,0.902c-0.789,0-1.26-0.301-1.408-0.902c-3.313-12.631-12.117-18.945-26.416-18.945
		c-8.842,0-16.264,3.646-22.266,10.938c-6.002,7.293-9.002,16.221-9.002,26.783c0,10.263,2.969,18.993,8.908,26.192
		c5.939,7.198,13.196,10.797,21.766,10.797c12.592,0,18.89-3.125,18.89-9.377v-14.913c0-2.07-0.997-3.548-2.989-4.434
		c-1.992-0.885-6.766-1.704-14.322-2.458c-0.602,0-0.902-0.554-0.902-1.662c0-1.034,0.301-1.552,0.902-1.552
		c2.519,0,6.24,0.095,11.166,0.282c4.736,0.188,8.25,0.282,10.543,0.282c2.256,0,5.244-0.094,8.965-0.282
		c3.984-0.188,7.236-0.282,9.756-0.282C1023.29,261.331,1023.591,261.858,1023.591,262.91"/>
	<path fill="#282727" d="M1099.372,278.924c-3.045,6.504-5.525,12.706-7.443,18.607c-14.172-0.451-24.266-0.677-30.279-0.677
		c-5.939,0-16.014,0.226-30.223,0.677c-0.602,0-0.902-0.527-0.902-1.579c0-0.939,0.301-1.446,0.902-1.522
		c3.119-0.376,5.506-0.875,7.162-1.495c1.652-0.62,2.809-1.457,3.467-2.511s0.986-2.896,0.986-5.53v-53.102
		c0-2.597-0.311-4.429-0.93-5.501c-0.621-1.072-1.758-1.93-3.412-2.568c-1.654-0.64-4.078-1.147-7.273-1.523
		c-0.602,0-0.902-0.517-0.902-1.551c0-1.033,0.301-1.551,0.902-1.551c9.473,0.451,19.172,0.677,29.096,0.677
		c9.997,0,19.715-0.226,29.152-0.677c0.863,5.827,2.123,11.579,3.777,17.255c0,0.752-0.658,1.127-1.976,1.127
		c-0.638,0-1.032-0.262-1.183-0.789c-2.781-8.871-8.721-13.307-17.818-13.307h-11.389c-4.361,0-6.541,2.255-6.541,6.766v25.092
		h14.209c3.779,0,6.34-0.864,7.681-2.594c1.341-1.729,2.278-4.793,2.808-9.19c0-0.601,0.516-0.902,1.551-0.902
		c1.033,0,1.549,0.302,1.549,0.902c0,1.88-0.111,4.248-0.338,7.104c-0.225,2.744-0.338,4.981-0.338,6.71
		c0,1.768,0.113,4.022,0.338,6.767c0.227,2.932,0.338,5.338,0.338,7.217c0,0.603-0.516,0.902-1.549,0.902
		c-1.035,0-1.551-0.3-1.551-0.902c-0.568-4.586-1.561-7.8-2.977-9.642c-1.418-1.842-3.922-2.763-7.512-2.763h-14.209v27.741
		c0,4.436,2.18,6.654,6.541,6.654h12.291c4.473,0,8.91-1.457,13.306-4.37c4.399-2.913,7.632-6.55,9.7-10.911
		c0.15-0.338,0.468-0.507,0.959-0.507c0.525,0,0.996,0.141,1.41,0.423C1099.165,278.162,1099.372,278.511,1099.372,278.924"/>
	<path fill="#282727" d="M764.047,335.372c0,0.752-0.658,1.127-1.973,1.127c-0.639,0-1.035-0.262-1.185-0.789
		c-1.315-4.359-3.571-7.668-6.767-9.924s-7.104-3.383-11.729-3.383h-10.148c-4.436,0-6.654,2.255-6.654,6.766v25.092h12.855
		c3.76,0,6.307-0.864,7.641-2.594c1.334-1.729,2.284-4.793,2.848-9.19c0-0.601,0.508-0.902,1.523-0.902
		c1.051,0,1.578,0.302,1.578,0.902c0,1.88-0.113,4.249-0.338,7.104c-0.227,2.744-0.338,4.981-0.338,6.71
		c0,1.769,0.111,4.022,0.338,6.768c0.225,2.931,0.338,5.337,0.338,7.216c0,0.603-0.527,0.902-1.578,0.902
		c-1.016,0-1.523-0.3-1.523-0.902c-0.602-4.586-1.606-7.799-3.016-9.642c-1.41-1.842-3.9-2.763-7.473-2.763h-12.855v26.05
		c0,2.594,0.329,4.427,0.987,5.498c0.657,1.071,1.823,1.917,3.495,2.537c1.673,0.62,4.07,1.119,7.189,1.494
		c0.639,0.076,0.959,0.583,0.959,1.522c0,1.052-0.301,1.579-0.902,1.579c-2.519,0-5.525-0.113-9.021-0.339
		c-3.346-0.226-6.166-0.338-8.458-0.338c-2.294,0-5.095,0.112-8.401,0.338c-3.459,0.226-6.447,0.339-8.966,0.339
		c-0.602,0-0.901-0.527-0.901-1.579c0-0.939,0.3-1.446,0.901-1.522c3.12-0.376,5.507-0.875,7.161-1.495s2.809-1.457,3.469-2.511
		c0.656-1.054,0.986-2.896,0.986-5.53v-53.102c0-2.596-0.311-4.429-0.932-5.501c-0.619-1.072-1.758-1.929-3.41-2.568
		c-1.654-0.64-4.08-1.147-7.274-1.523c-0.602,0-0.901-0.517-0.901-1.551c0-1.033,0.3-1.551,0.901-1.551
		c9.474,0.451,19.171,0.677,29.095,0.677c9.398,0,18.814-0.226,28.25-0.677C761.059,324.621,762.469,330.373,764.047,335.372"/>
	<path fill="#282727" d="M840.337,377.943c-3.045,6.504-5.524,12.706-7.442,18.607c-14.173-0.451-24.266-0.677-30.279-0.677
		c-5.94,0-16.014,0.226-30.223,0.677c-0.603,0-0.902-0.527-0.902-1.579c0-0.939,0.3-1.446,0.902-1.522
		c3.119-0.376,5.506-0.875,7.16-1.495s2.809-1.457,3.469-2.511c0.656-1.054,0.986-2.896,0.986-5.53v-53.102
		c0-2.596-0.311-4.429-0.931-5.501s-1.759-1.929-3.411-2.568c-1.654-0.64-4.08-1.147-7.273-1.523c-0.603,0-0.902-0.517-0.902-1.551
		c0-1.033,0.3-1.551,0.902-1.551c9.473,0.451,19.17,0.677,29.094,0.677c9.998,0,19.716-0.226,29.152-0.677
		c0.864,5.827,2.124,11.579,3.778,17.255c0,0.752-0.658,1.127-1.976,1.127c-0.638,0-1.032-0.262-1.183-0.789
		c-2.782-8.87-8.721-13.307-17.817-13.307h-11.391c-4.361,0-6.541,2.255-6.541,6.766v25.092h14.21c3.779,0,6.341-0.864,7.681-2.594
		c1.342-1.729,2.277-4.793,2.807-9.19c0-0.601,0.518-0.902,1.551-0.902c1.034,0,1.551,0.302,1.551,0.902
		c0,1.88-0.113,4.248-0.339,7.104c-0.225,2.744-0.338,4.981-0.338,6.71c0,1.768,0.113,4.022,0.338,6.767
		c0.226,2.932,0.339,5.338,0.339,7.217c0,0.603-0.517,0.902-1.551,0.902c-1.033,0-1.551-0.3-1.551-0.902
		c-0.566-4.586-1.559-7.8-2.975-9.642c-1.418-1.842-3.922-2.763-7.513-2.763h-14.21v27.741c0,4.437,2.18,6.654,6.541,6.654h12.292
		c4.474,0,8.909-1.457,13.308-4.37c4.397-2.913,7.629-6.55,9.699-10.911c0.149-0.338,0.469-0.507,0.959-0.507
		c0.524,0,0.994,0.141,1.408,0.423C840.13,377.182,840.337,377.53,840.337,377.943"/>
	<path fill="#282727" d="M897.003,373.884c0,7.48-2.221,13.43-6.662,17.846c-4.441,4.417-10.442,6.626-18.008,6.626
		c-3.35,0-7.357-0.603-12.023-1.805c-4.254-1.128-7.734-1.691-10.443-1.691c-0.227-6.391-0.678-12.78-1.355-19.172
		c0-0.601,0.564-0.902,1.691-0.902c0.789,0,1.277,0.302,1.467,0.902c2.031,6.992,4.629,11.917,7.793,14.773
		c3.162,2.857,7.598,4.285,13.307,4.285c4.545,0,8.066-1.315,10.563-3.947c2.498-2.63,3.748-6.314,3.748-11.051
		c0-3.045-1.092-5.873-3.271-8.486c-2.18-2.612-6.822-5.986-13.926-10.121c-8.158-4.699-13.496-8.684-16.014-11.954
		c-2.52-3.271-3.779-6.897-3.779-10.883c0-6.127,2.27-11.306,6.805-15.534c4.535-4.229,10.285-6.344,17.248-6.344
		c2.635,0,5.664,0.357,9.091,1.071c3.198,0.64,5.964,0.959,8.298,0.959c0.452,6.616,1.055,12.442,1.807,17.479
		c0,0.602-0.488,0.902-1.465,0.902c-1.053,0-1.635-0.301-1.748-0.902c-1.244-5.639-3.127-9.697-5.648-12.18
		c-2.523-2.48-6.014-3.721-10.471-3.721c-4.229,0-7.59,1.24-10.082,3.721c-2.494,2.482-3.74,5.827-3.74,10.037
		c0,2.67,1.047,5.216,3.139,7.641c2.094,2.424,6.627,5.666,13.604,9.727c8.256,4.812,13.668,8.834,16.232,12.066
		C895.72,366.46,897.003,370.012,897.003,373.884"/>
	<path fill="#282727" d="M983.497,336.669c0,0.714-0.676,1.071-2.029,1.071c-0.602,0-0.979-0.263-1.129-0.79
		c-1.615-5.3-3.928-9.05-6.936-11.249s-7.461-3.298-13.363-3.298h-5.301c-1.842,0-3.1,0.301-3.777,0.901
		c-0.676,0.603-1.016,1.729-1.016,3.384v57.231c0,2.594,0.33,4.427,0.987,5.498s1.823,1.917,3.497,2.537
		c1.671,0.62,4.068,1.119,7.189,1.494c0.6,0.075,0.9,0.583,0.9,1.522c0,1.051-0.301,1.579-0.9,1.579
		c-2.52,0-5.527-0.113-9.023-0.339c-3.316-0.226-6.088-0.338-8.316-0.338c-2.305,0-5.133,0.112-8.486,0.338
		c-3.496,0.226-6.504,0.339-9.021,0.339c-0.602,0-0.902-0.528-0.902-1.579c0-0.939,0.301-1.447,0.902-1.522
		c4.549-0.525,7.641-1.371,9.275-2.537c1.635-1.165,2.453-3.496,2.453-6.992v-57.231c0-1.654-0.338-2.781-1.016-3.384
		c-0.677-0.601-1.955-0.901-3.834-0.901h-4.398c-5.299,0-10.111,1.344-14.434,4.031c-4.324,2.688-7.143,6.173-8.459,10.46
		c-0.188,0.563-0.602,0.846-1.24,0.846c-1.277,0-1.916-0.413-1.916-1.241c2.104-5.675,4.096-12.104,5.977-19.283
		c5.115,1.053,16.816,1.578,35.1,1.578c18.771,0,30.717-0.525,35.834-1.578C980.64,322.103,981.767,328.587,983.497,336.669"/>
	<g>
		<path fill="#282727" d="M735.574,258.737c0,11.917-3.834,21.662-11.504,29.236c-7.668,7.575-17.686,11.362-30.053,11.362
			c-12.369,0-22.377-3.787-30.025-11.362c-7.65-7.574-11.475-17.319-11.475-29.236c0-11.954,3.853-21.83,11.559-29.631
			c7.705-7.8,17.686-11.7,29.941-11.7c12.293,0,22.291,3.9,29.998,11.7C731.721,236.907,735.574,246.783,735.574,258.737
			 M723.169,258.737c0-11.089-2.679-20.148-8.035-27.178s-12.396-10.544-21.116-10.544c-8.76,0-15.798,3.515-21.117,10.544
			s-7.979,16.089-7.979,27.178c0,11.015,2.641,19.933,7.922,26.756c5.281,6.822,12.34,10.233,21.174,10.233
			c8.797,0,15.854-3.411,21.172-10.233C720.51,278.67,723.169,269.752,723.169,258.737"/>
	</g>
</g>
</svg>
